#define bat_width 20
#define bat_height 14
static char bat_bits[] = {
  0x00, 0x00, 0x00, 0x00, 0x00, 0x00, 0xFF, 0xFF, 0x00, 0xFF, 0xFF, 0x00, 
  0x03, 0xC0, 0x03, 0x03, 0xC0, 0x03, 0x03, 0x00, 0x03, 0x03, 0x00, 0x03, 
  0x03, 0xC0, 0x03, 0x03, 0xC0, 0x03, 0xFF, 0xFF, 0x00, 0xFF, 0xFF, 0x00, 
  0x00, 0x00, 0x00, 0x00, 0x00, 0x00, };
