#define bat_width 10
#define bat_height 7
static unsigned char bat_bits[] = {
   0x00, 0x00, 0xff, 0x00, 0x81, 0x01, 0x01, 0x01, 0x81, 0x01, 0xff, 0x00,
   0x00, 0x00 };
